<mxfile host="Electron" modified="2023-12-20T13:06:40.341Z" agent="Mozilla/5.0 (Windows NT 10.0; Win64; x64) AppleWebKit/537.36 (KHTML, like Gecko) draw.io/22.1.2 Chrome/114.0.5735.289 Electron/25.9.4 Safari/537.36" etag="DC7gQSIbbkMu3B0W3yT3" version="22.1.2" type="device">
  <diagram name="Page-1" id="B4N2S75nflqeGTzwn8xi">
    <mxGraphModel dx="1036" dy="-555" grid="1" gridSize="10" guides="1" tooltips="1" connect="1" arrows="1" fold="1" page="1" pageScale="1" pageWidth="827" pageHeight="1169" math="0" shadow="0">
      <root>
        <mxCell id="0" />
        <mxCell id="1" parent="0" />
        <mxCell id="QGV1TojfyUTg97D76qeK-1" value="&lt;p style=&quot;margin:0px;margin-top:4px;text-align:center;&quot;&gt;&lt;b&gt;CourseRegistrationSystem&lt;/b&gt;&lt;/p&gt;&lt;hr size=&quot;1&quot;/&gt;&lt;p style=&quot;margin:0 0 0 4px;line-height:1.6;&quot;&gt;+ CourseRegistrationSystem(): &lt;/p&gt;&lt;hr size=&quot;1&quot;/&gt;&lt;p style=&quot;margin:0 0 0 4px;line-height:1.6;&quot;&gt;- choice: int&lt;br/&gt;- logger: Logger&lt;br/&gt;- input: Scanner&lt;br/&gt;- university: University&lt;/p&gt;&lt;hr size=&quot;1&quot;/&gt;&lt;p style=&quot;margin:0 0 0 4px;line-height:1.6;&quot;&gt;+ courseRegistrationMenu(Student): void&lt;br/&gt;+ start(): void&lt;br/&gt;+ loginMenu(): void&lt;br/&gt;+ mainMenu(): void&lt;br/&gt;+ getInput(): int&lt;br/&gt;+ exitProgram(): void&lt;br/&gt;+ removeFromSchedule(Course, Student): void&lt;br/&gt;+ addToSchedule(Course, Student): void&lt;br/&gt;+ studentMenu(Student): void&lt;br/&gt;+ advisorMenu(Advisor): void&lt;br/&gt;+ printMenu(String): void&lt;/p&gt;" style="verticalAlign=top;align=left;overflow=fill;fontSize=14;fontFamily=Helvetica;html=1;rounded=0;shadow=0;comic=0;labelBackgroundColor=none;strokeWidth=1;" vertex="1" parent="1">
          <mxGeometry x="335" y="1322" width="325" height="428" as="geometry" />
        </mxCell>
      </root>
    </mxGraphModel>
  </diagram>
</mxfile>
